{
  "source": "C:\\Users\\Peter\\Desktop\\stuff\\MIUN\\quantitative_research\\video_compression\\videos\\BVI-HD\\BVI-HD_CDVL_videos\\ORIG\\Boxing_1920x1080_30fps.mp4",
  "output": "C:\\Users\\Peter\\Desktop\\stuff\\MIUN\\quantitative_research\\video_compression\\compressed_videos\\BVI-HD\\vp9\\2\\Boxing_1920x1080_30fps_vp9.webm",
  "codec": "vp9",
  "ok": "Input #0, mov,mp4,m4a,3gp,3g2,mj2, from 'C:\\Users\\Peter\\Desktop\\stuff\\MIUN\\quantitative_research\\video_compression\\videos\\BVI-HD\\BVI-HD_CDVL_videos\\ORIG\\Boxing_1920x1080_30fps.mp4':\n  Metadata:\n    major_brand     : isom\n    minor_version   : 512\n    compatible_brands: isomiso2avc1mp41\n    encoder         : Lavf54.28.101\n  Duration: 00:00:05.00, start: 0.000000, bitrate: 238363 kb/s\n  Stream #0:0[0x1](und): Video: h264 (High 4:4:4 Predictive) (avc1 / 0x31637661), yuv420p(progressive), 1920x1080, 238359 kb/s, 30 fps, 30 tbr, 30 tbn (default)\n    Metadata:\n      handler_name    : VideoHandler\n      vendor_id       : [0][0][0][0]\n[out#0/webm @ 000002799bf712c0] Codec AVOption b:a (set bitrate (in bits/s)) has not been used for any stream. The most likely reason is either wrong type (e.g. a video option with no video streams) or that it is a private option of some decoder which was not actually used for any stream.\nStream mapping:\n  Stream #0:0 -> #0:0 (h264 (native) -> vp9 (libvpx-vp9))\nPress [q] to stop, [?] for help\n[libvpx-vp9 @ 000002799c81b040] v1.15.2-100-g40561f514\nOutput #0, webm, to 'C:\\Users\\Peter\\Desktop\\stuff\\MIUN\\quantitative_research\\video_compression\\compressed_videos\\BVI-HD\\vp9\\2\\Boxing_1920x1080_30fps_vp9.webm':\n  Metadata:\n    major_brand     : isom\n    minor_version   : 512\n    compatible_brands: isomiso2avc1mp41\n    encoder         : Lavf62.3.100\n  Stream #0:0(und): Video: vp9, yuv420p(tv, progressive), 1920x1080, q=2-31, 2000 kb/s, 30 fps, 1k tbn (default)\n    Metadata:\n      encoder         : Lavc62.11.100 libvpx-vp9\n      handler_name    : VideoHandler\n      vendor_id       : [0][0][0][0]\n    Side data:\n      cpb: bitrate max/min/avg: 0/0/0 buffer size: 2000000 vbv_delay: N/A\nframe=    0 fps=0.0 q=0.0 size=       0KiB time=N/A bitrate=N/A speed=N/A elapsed=0:00:00.53    \nframe=    6 fps=5.3 q=55.0 size=       1KiB time=00:00:00.20 bitrate=  25.4kbits/s speed=0.178x elapsed=0:00:01.12    \nframe=   11 fps=6.7 q=42.0 size=       1KiB time=00:00:00.36 bitrate=  13.8kbits/s speed=0.224x elapsed=0:00:01.63    \nframe=   17 fps=7.9 q=46.0 size=       1KiB time=00:00:00.56 bitrate=   9.0kbits/s speed=0.263x elapsed=0:00:02.15    \nframe=   21 fps=7.8 q=31.0 size=       1KiB time=00:00:00.70 bitrate=   7.2kbits/s speed=0.26x elapsed=0:00:02.69    \nframe=   26 fps=8.1 q=48.0 size=       1KiB time=00:00:00.86 bitrate=   5.9kbits/s speed=0.271x elapsed=0:00:03.19    \nframe=   30 fps=8.1 q=49.0 size=       1KiB time=00:00:01.00 bitrate=   5.1kbits/s speed=0.269x elapsed=0:00:03.72    \nframe=   36 fps=8.4 q=47.0 size=       1KiB time=00:00:01.20 bitrate=   4.2kbits/s speed=0.281x elapsed=0:00:04.27    \nframe=   41 fps=8.6 q=26.0 size=       1KiB time=00:00:01.33 bitrate=   3.8kbits/s speed=0.278x elapsed=0:00:04.79    \nframe=   46 fps=8.6 q=48.0 size=       1KiB time=00:00:01.53 bitrate=   3.3kbits/s speed=0.286x elapsed=0:00:05.36    \nframe=   51 fps=8.6 q=29.0 size=       1KiB time=00:00:01.70 bitrate=   3.0kbits/s speed=0.287x elapsed=0:00:05.91    \nframe=   56 fps=8.7 q=48.0 size=       1KiB time=00:00:01.86 bitrate=   2.7kbits/s speed=0.29x elapsed=0:00:06.43    \nframe=   61 fps=8.7 q=30.0 size=       1KiB time=00:00:02.03 bitrate=   2.5kbits/s speed=0.291x elapsed=0:00:06.97    \nframe=   67 fps=8.9 q=48.0 size=       1KiB time=00:00:02.23 bitrate=   2.3kbits/s speed=0.298x elapsed=0:00:07.50    \nframe=   71 fps=8.8 q=30.0 size=       1KiB time=00:00:02.36 bitrate=   2.1kbits/s speed=0.294x elapsed=0:00:08.06    \nframe=   77 fps=8.9 q=47.0 size=       1KiB time=00:00:02.56 bitrate=   2.0kbits/s speed=0.298x elapsed=0:00:08.60    \nframe=   82 fps=8.9 q=48.0 size=       1KiB time=00:00:02.73 bitrate=   1.9kbits/s speed=0.297x elapsed=0:00:09.19    \nframe=   87 fps=8.9 q=50.0 size=       1KiB time=00:00:02.90 bitrate=   1.7kbits/s speed=0.298x elapsed=0:00:09.73    \nframe=   91 fps=8.9 q=32.0 size=       1KiB time=00:00:03.03 bitrate=   1.7kbits/s speed=0.295x elapsed=0:00:10.27    \nframe=   96 fps=8.9 q=50.0 size=       1KiB time=00:00:03.20 bitrate=   1.6kbits/s speed=0.297x elapsed=0:00:10.78    \nframe=  100 fps=8.8 q=51.0 size=       1KiB time=00:00:03.33 bitrate=   1.5kbits/s speed=0.295x elapsed=0:00:11.30    \nframe=  106 fps=9.0 q=51.0 size=       1KiB time=00:00:03.53 bitrate=   1.4kbits/s speed=0.299x elapsed=0:00:11.83    \nframe=  110 fps=8.9 q=51.0 size=       1KiB time=00:00:03.66 bitrate=   1.4kbits/s speed=0.297x elapsed=0:00:12.35    \nframe=  116 fps=9.0 q=51.0 size=       1KiB time=00:00:03.86 bitrate=   1.3kbits/s speed= 0.3x elapsed=0:00:12.89    \nframe=  121 fps=9.0 q=33.0 size=       1KiB time=00:00:04.00 bitrate=   1.3kbits/s speed=0.298x elapsed=0:00:13.40    \nframe=  126 fps=9.0 q=51.0 size=       1KiB time=00:00:04.20 bitrate=   1.2kbits/s speed=0.301x elapsed=0:00:13.95    \nframe=  126 fps=8.7 q=51.0 size=       1KiB time=00:00:04.20 bitrate=   1.2kbits/s speed=0.29x elapsed=0:00:14.48    \nframe=  126 fps=8.4 q=51.0 size=       1KiB time=00:00:04.20 bitrate=   1.2kbits/s speed=0.28x elapsed=0:00:14.99    \nframe=  126 fps=8.1 q=51.0 size=       1KiB time=00:00:04.20 bitrate=   1.2kbits/s speed=0.271x elapsed=0:00:15.51    \nframe=  126 fps=7.9 q=51.0 size=       1KiB time=00:00:04.20 bitrate=   1.2kbits/s speed=0.262x elapsed=0:00:16.04    \nframe=  126 fps=7.6 q=51.0 size=       1KiB time=00:00:04.20 bitrate=   1.2kbits/s speed=0.253x elapsed=0:00:16.57    \n[out#0/webm @ 000002799bf712c0] video:1008KiB audio:0KiB subtitle:0KiB other streams:0KiB global headers:0KiB muxing overhead: 0.170622%\nframe=  150 fps=9.0 q=48.0 Lsize=    1010KiB time=00:00:05.00 bitrate=1654.2kbits/s speed=0.301x elapsed=0:00:16.60    \n",
  "seconds": 16.900877714157104,
  "probe_out": {}
}